<svg xmlns="http://www.w3.org/2000/svg" xmlns:xlink="http://www.w3.org/1999/xlink" viewBox="0 0 108 108"><defs><style>.cls-1{fill:url(#Безымянный_градиент_42);}.cls-2{fill:none;stroke:#000;stroke-linecap:round;stroke-linejoin:round;stroke-width:0.5px;}</style><radialGradient id="Безымянный_градиент_42" cx="54.1" cy="54.16" r="31.08" gradientUnits="userSpaceOnUse"><stop offset="0.13" stop-color="#fbae17"/><stop offset="0.49" stop-color="#b7151b"/><stop offset="1" stop-color="#fbae17"/></radialGradient></defs><title>Монтажная область 2background_108</title><g id="Background"><g id="Background-2" data-name="Background"><rect x="-2" y="-14" width="129" height="137"/></g></g><g id="Fire"><path class="cls-1" d="M59.05,19A56.43,56.43,0,0,1,80.48,63a26.38,26.38,0,0,1-52.76,0A45.4,45.4,0,0,1,38.37,33.64l-.1,1.19a12,12,0,0,0,12,12.29c6.8,0,11.25-5.5,11.25-12.29C61.49,27.74,59.05,19,59.05,19ZM71.32,61.08a53,53,0,0,0-2.54-16.29c-4.4,5.52-12.28,9-19.91,10.4s-12.1,6.05-12.1,12.59c0,7,6.2,12.66,13.87,12.66C62.06,80.44,71.32,71.77,71.32,61.08Z"/><path d="M68.78,44.79a53,53,0,0,1,2.54,16.29c0,10.69-9.26,19.36-20.68,19.36-7.67,0-13.87-5.64-13.87-12.66,0-6.54,4.52-11.13,12.1-12.59S64.38,50.31,68.78,44.79Z"/><path class="cls-2" d="M50.64,80.44c-7.67,0-13.87-5.64-13.87-12.66,0-6.54,4.52-11.13,12.1-12.59s15.51-4.88,19.91-10.4a53,53,0,0,1,2.54,16.29C71.32,71.77,62.06,80.44,50.64,80.44Z"/></g></svg>