<svg xmlns="http://www.w3.org/2000/svg" viewBox="0 0 108 108"><defs><style>.cls-1{fill:#fff;}</style></defs><title>Монтажная область 1foreground_108</title><g id="Timer"><path class="cls-1" d="M65.22,59.18l2.44-2.45a19.84,19.84,0,0,0-2.42-2.43l-2.45,2.45a15.49,15.49,0,1,0,2.43,2.43ZM53.11,80.89a12.06,12.06,0,1,1,12.06-12A12,12,0,0,1,53.11,80.89Z"/><path class="cls-1" d="M64,68.31l-10.23.55,4.71-9.3A10.23,10.23,0,0,1,64,68.31Z"/><rect class="cls-1" x="47.95" y="48.17" width="10.33" height="3.44"/><rect class="cls-1" x="47.79" y="60" width="1.54" height="9.84" transform="translate(129.36 58.4) rotate(122.17)"/><path class="cls-1" d="M60.11,71.92a7.76,7.76,0,0,1-12.83,0H44.7a10,10,0,0,0,18,0Z"/></g></svg>