<svg xmlns="http://www.w3.org/2000/svg" xmlns:xlink="http://www.w3.org/1999/xlink" viewBox="0 0 1024 500"><defs><style>.cls-1{font-size:120px;fill:#51f251;font-family:MyriadPro-Regular, Myriad Pro;}.cls-2{letter-spacing:0em;}.cls-3{letter-spacing:-0.01em;}.cls-4{fill:url(#Безымянный_градиент_42);}.cls-5{fill:none;stroke:#000;stroke-linecap:round;stroke-linejoin:round;stroke-width:0.5px;}.cls-6{fill:#fff;}</style><radialGradient id="Безымянный_градиент_42" cx="235.86" cy="249.66" r="205.36" gradientUnits="userSpaceOnUse"><stop offset="0.13" stop-color="#fbae17"/><stop offset="0.49" stop-color="#b7151b"/><stop offset="1" stop-color="#fbae17"/></radialGradient></defs><title>l1</title><g id="Background"><g id="Background-2" data-name="Background"><rect x="-28.5" y="-5" width="1113" height="525" rx="12.5"/></g></g><g id="Grids"><text class="cls-1" transform="translate(450.93 312.3)"><tspan class="cls-2">B</tspan><tspan x="65.52" y="0">oun</tspan><tspan class="cls-3" x="264.12" y="0">c</tspan><tspan x="317.16" y="0">er77</tspan></text></g><g id="Fire"><path class="cls-4" d="M267.67,11C350.58,81,405.5,188.68,405.5,309.3c0,98.91-75.91,179-169.63,179S66.23,408.21,66.23,309.3c0-75.64,25.65-145.23,68.49-198.94l-.64,8c0,46.11,33.08,83.48,77,83.48,43.68,0,72.31-37.37,72.31-83.48C283.36,70.31,267.67,11,267.67,11Zm78.92,285.63A377.66,377.66,0,0,0,330.24,186c-28.26,37.51-79,60.77-128,70.63-48.76,9.86-77.85,41.07-77.85,85.41,0,47.64,39.89,86,89.21,86C287,428,346.59,369.18,346.59,296.63Z"/><path d="M330.24,186a377.66,377.66,0,0,1,16.35,110.6c0,72.55-59.57,131.41-133,131.41-49.32,0-89.21-38.33-89.21-86,0-44.34,29.09-75.55,77.85-85.41C251.28,246.8,302,223.54,330.24,186Z"/><path class="cls-5" d="M213.59,428c-49.32,0-89.21-38.33-89.21-86,0-44.34,29.09-75.55,77.85-85.41,49.05-9.86,99.75-33.12,128-70.63a377.66,377.66,0,0,1,16.35,110.6C346.59,369.18,287,428,213.59,428Z"/></g><g id="Timer"><path class="cls-6" d="M319.08,288.21,336,271.31a131.37,131.37,0,0,0-16.76-16.76l-16.89,16.88a107.07,107.07,0,1,0,16.77,16.78Zm-83.6,150a83.25,83.25,0,1,1,83.24-83.25A83.19,83.19,0,0,1,235.48,438.16Z"/><path class="cls-6" d="M310.78,351.26l-70.61,3.79,32.51-64.19A70.57,70.57,0,0,1,310.78,351.26Z"/><rect class="cls-6" x="199.8" y="212.22" width="71.35" height="23.78"/><rect class="cls-6" x="198.69" y="293.91" width="10.61" height="67.95" transform="translate(590.16 329.81) rotate(122.17)"/><path class="cls-6" d="M283.82,376.21a53.71,53.71,0,0,1-88.64,0H177.35a69.23,69.23,0,0,0,124.3,0Z"/></g></svg>